# xmcd
# 
# Track frame offsets:
#     150
#     13757
#     26247
#     38667
#     52175
#     66062
#     79850
#     93160
#     106455
#     119987
#     133450
#     145497
#     158647
#     170902
#     185700
#     199267
#     212845
#     227717
#     240432
#     253777
# 
# Disc length: 3562
# 
# Revision: 4
# Processed by: cddbd v1.5.2PL0 Copyright (c) Steve Scherf et al.
# Submitted via: fre:ac v1.0.31
# 
DISCID=340de814
DTITLE=Columbia Blues - Memphis Minnie Hoodoo Lady
DYEAR=1933
DGENRE=Blues
TTITLE0=Down In The Alley
TTITLE1=Has Anyone Seen My Man
TTITLE2=I Hate To See The Sun Go Down
TTITLE3=Ice Man
TTITLE4=Hoodoo Lady
TTITLE5=I'm A Bad Luck Woman
TTITLE6=Caught Me Wrong Again
TTITLE7=Black Cat Blues
TTITLE8=Good Morning
TTITLE9=Man, You Won't Give Me No Money
TTITLE10=Keep On Eatin'
TTITLE11=I've Been Treated Wrong
TTITLE12=Good Biscuits
TTITLE13=Ain't No Use Tryin' To Tell On Me
TTITLE14=My Butcher Man
TTITLE15=My Strange Man
TTITLE16=If You See My Rooster
TTITLE17=My Baby Don't Wan tMe No More
TTITLE18=Please Don't Stop Him
TTITLE19=I'm Going Don't You Know
EXTD=more info
EXTT0=
EXTT1=
EXTT2=
EXTT3=
EXTT4=
EXTT5=
EXTT6=
EXTT7=
EXTT8=
EXTT9=
EXTT10=
EXTT11=
EXTT12=
EXTT13=
EXTT14=
EXTT15=
EXTT16=
EXTT17=
EXTT18=
EXTT19=
PLAYORDER=
